<svg xmlns="http://www.w3.org/2000/svg" shape-rendering="geometricPrecision" text-rendering="geometricPrecision" image-rendering="optimizeQuality" fill-rule="evenodd" clip-rule="evenodd" viewBox="0 0 512 501.96"><defs><linearGradient id="prefix__a" gradientUnits="userSpaceOnUse" x1="72.09" y1="366.31" x2="134.78" y2="156.56"><stop offset="0" stop-color="#2B57A1"/><stop offset=".322" stop-color="#2D59A3"/><stop offset=".49" stop-color="#305CA6"/><stop offset=".839" stop-color="#3562AF"/><stop offset="1" stop-color="#6895E0"/></linearGradient><linearGradient id="prefix__b" gradientUnits="userSpaceOnUse" x1="92.28" y1="373.18" x2="154.97" y2="161.73"><stop offset="0" stop-color="#2B57A1"/><stop offset=".322" stop-color="#2D59A3"/><stop offset=".49" stop-color="#305CA6"/><stop offset=".839" stop-color="#3562AF"/><stop offset="1" stop-color="#6895E0"/></linearGradient><linearGradient id="prefix__c" gradientUnits="userSpaceOnUse" x1="232.54" y1="325.36" x2="234.67" y2="175.54"><stop offset="0" stop-color="#2B57A1"/><stop offset=".322" stop-color="#2D59A3"/><stop offset=".49" stop-color="#305CA6"/><stop offset=".929" stop-color="#6895E0"/><stop offset="1" stop-color="#6895E0"/></linearGradient><linearGradient id="prefix__d" gradientUnits="userSpaceOnUse" x1="373.86" y1="347.68" x2="366.43" y2="152.16"><stop offset="0" stop-color="#2B57A1"/><stop offset=".322" stop-color="#2D59A3"/><stop offset=".49" stop-color="#305CA6"/><stop offset=".929" stop-color="#6895E0"/><stop offset="1" stop-color="#6895E0"/></linearGradient><linearGradient id="prefix__e" gradientUnits="userSpaceOnUse" x1="263.78" y1="480.5" x2="262.75" y2="35.28"><stop offset="0" stop-color="#2B57A1"/><stop offset=".322" stop-color="#2D59A3"/><stop offset=".49" stop-color="#305CA6"/><stop offset=".839" stop-color="#3562AF"/><stop offset="1" stop-color="#6895E0"/></linearGradient></defs><g fill-rule="nonzero"><path fill="url(#prefix__a)" d="M143.18 187.76c0 9.67-7.65 17.21-17 17.21-9.67 0-17.22-7.65-17.22-17.21 0-9.46 7.87-17 17.43-17 9.14-.11 16.79 7.75 16.79 17z"/><path fill="url(#prefix__b)" d="M110.56 230.37c0-7.23.21-9.14 2.12-12.65 2.24-4.57 7.65-7.65 13.29-7.65 5.41 0 10.83 3.08 13.06 7.65 1.92 3.51 2.13 5.21 2.13 12.65v67.47c0 7.23-.21 9.14-2.13 12.65-2.23 4.57-7.65 7.65-13.06 7.65-5.64 0-10.95-3.08-13.29-7.65-1.91-3.51-2.12-5.21-2.12-12.65v-67.47z"/><path fill="url(#prefix__c)" d="M156.57 227.29c0-10.63 6.05-17.75 15.19-17.75 6.06 0 9.35 2.13 14.77 9.99 8.5-7.76 16.05-10.63 26.89-10.63 7.54 0 15.19 1.92 20.82 5.21 3.08 1.7 5 3.51 8.5 8.18 12.33-9.99 20.4-13.39 32.09-13.39 21.25 0 36.87 14.99 36.87 35.49v53.35c0 7.33-.21 9.13-2.12 12.75-2.34 4.57-7.76 7.75-13.18 7.75-5.63 0-11.05-3.08-13.39-7.75-1.91-3.51-2.12-5.21-2.12-12.75V251.2c0-9.36-6.27-15.84-15.62-15.84s-16.05 6.48-16.05 15.84v46.54c0 7.33-.21 9.13-2.12 12.75-2.34 4.57-7.76 7.75-13.18 7.75-5.63 0-11.05-3.08-13.39-7.75-1.91-3.51-2.12-5.21-2.12-12.75v-43.57c0-11.9-5.85-18.81-15.83-18.81-9.14 0-15.84 6.7-15.84 15.84v46.54c0 7.33-.21 9.13-2.12 12.75-2.34 4.57-7.76 7.75-13.18 7.75-5.63 0-11.05-3.08-13.39-7.75-1.91-3.51-2.12-5.21-2.12-12.75v-70.45h.64z"/><path fill="url(#prefix__d)" d="M410.84 225.8c9.46 9.99 14.56 23.91 14.56 39.21 0 31.98-23.16 56-53.98 56-14.98 0-29.75-6.38-39.63-17.01-9.67-10.2-14.56-23.69-14.56-39.84 0-31.14 23.59-55.36 54.19-55.36 14.77 0 29.54 6.37 39.42 17zm-61.73 38.78c0 15.73 9.24 27.31 21.57 27.31 12.75 0 22.74-11.9 22.74-27.09 0-14.88-9.89-26.89-22.74-26.89-12.01.11-21.57 11.8-21.57 26.67z"/><path fill="url(#prefix__e)" d="M261.02 501.96c-52.49 0-101.16-16.15-141.43-43.67-19.02 9.99-61.74 12.22-80.33 9.99-27.1-3.19-55.47-25.61-28.16-47.5 42.4-33.79 31.03-47.18 31.03-47.18-20.3-36.23-31.88-78.1-31.88-122.62C10.25 112.42 122.56 0 261.12 0S512 112.31 512 250.98 399.58 501.96 261.02 501.96zm0-465.19c-119.12 0-215.7 96.58-215.7 215.81 0 41.01 11.47 79.37 31.34 111.99 0 0 14.13 36.66-22.1 63.97 22.74 7.65 70.66-6.38 73.11-6.38 36.65 28.91 82.98 46.23 133.35 46.23 119.11 0 215.7-96.59 215.7-215.81 0-119.23-96.59-215.81-215.7-215.81z"/></g></svg>